<?xml version="1.0" encoding="utf-8"?>
<!-- Generator: Adobe Illustrator 16.0.0, SVG Export Plug-In . SVG Version: 6.00 Build 0)  -->
<!DOCTYPE svg PUBLIC "-//W3C//DTD SVG 1.0//EN" "http://www.w3.org/TR/2001/REC-SVG-20010904/DTD/svg10.dtd">
<svg version="1.0" id="Capa_1" xmlns="http://www.w3.org/2000/svg" xmlns:xlink="http://www.w3.org/1999/xlink" x="0px" y="0px"
	 width="230.583px" height="133.402px" viewBox="0 0 230.583 133.402" enable-background="new 0 0 230.583 133.402"
	 xml:space="preserve">
<path fill="#D6EEED" d="M230.583,121.759c0,6.432-7.876,11.644-17.593,11.644H17.591C7.876,133.402,0,128.19,0,121.759V11.643
	C0,5.213,7.876,0,17.591,0h195.399c9.717,0,17.593,5.213,17.593,11.643V121.759z"/>
<g>
	<line fill="none" stroke="#F5825A" stroke-width="6" stroke-miterlimit="10" x1="114.309" y1="47.605" x2="114.309" y2="18.621"/>
	<line fill="none" stroke="#F5825A" stroke-width="6" stroke-miterlimit="10" x1="114.309" y1="87.928" x2="114.309" y2="59.415"/>
	<line fill="none" stroke="#F5825A" stroke-width="6" stroke-miterlimit="10" x1="148.59" y1="53.274" x2="119.513" y2="53.274"/>
	<line fill="none" stroke="#F5825A" stroke-width="6" stroke-miterlimit="10" x1="109.017" y1="53.274" x2="79.284" y2="53.274"/>
	<circle fill="none" stroke="#4F8C91" stroke-width="8" stroke-miterlimit="10" cx="114.309" cy="53.274" r="27.947"/>
	<path fill="none" stroke="#4F8C91" stroke-width="8" stroke-miterlimit="10" d="M128.781,53.274
		c0,7.992-6.479,14.473-14.472,14.473c-7.991,0-14.471-6.48-14.471-14.473c0-7.991,6.479-14.471,14.471-14.471
		C122.301,38.803,128.781,45.283,128.781,53.274z"/>
</g>
</svg>
