<?xml version="1.0" encoding="utf-8"?>
<!-- Generator: Adobe Illustrator 16.0.0, SVG Export Plug-In . SVG Version: 6.00 Build 0)  -->
<!DOCTYPE svg PUBLIC "-//W3C//DTD SVG 1.0//EN" "http://www.w3.org/TR/2001/REC-SVG-20010904/DTD/svg10.dtd">
<svg version="1.0" id="Capa_1" xmlns="http://www.w3.org/2000/svg" xmlns:xlink="http://www.w3.org/1999/xlink" x="0px" y="0px"
	 width="230.583px" height="133.402px" viewBox="0 0 230.583 133.402" enable-background="new 0 0 230.583 133.402"
	 xml:space="preserve">
<path fill="#D6EEED" d="M230.583,121.759c0,6.433-7.875,11.645-17.593,11.645H17.591C7.876,133.402,0,128.19,0,121.759V11.643
	C0,5.213,7.876,0,17.591,0h195.4c9.717,0,17.592,5.213,17.592,11.644V121.759L230.583,121.759z"/>
<g>
	<g>
		<defs>
			<rect id="SVGID_1_" x="65.69" y="13.621" width="94.653" height="79.563"/>
		</defs>
		<clipPath id="SVGID_2_">
			<use xlink:href="#SVGID_1_"  overflow="visible"/>
		</clipPath>
		<g clip-path="url(#SVGID_2_)">
			<path fill="#2B536D" d="M148.437,101.804c0,10.657-8.641,19.299-19.297,19.299H98.984c-10.658,0-19.298-8.642-19.298-19.299
				v-25.73c0-10.656,8.64-19.298,19.298-19.298h30.154c10.656,0,19.299,8.642,19.299,19.298V101.804L148.437,101.804z"/>
			<path fill="#FFFFFF" d="M129.83,67.454c0,1.135-16.019,23.094-15.509,23.094c8.566,0-15.508-17.197-15.508-23.094
				c0-5.898,6.942-10.679,15.508-10.679C122.885,56.775,129.83,61.555,129.83,67.454z"/>
			
				<line fill="none" stroke="#E37041" stroke-width="3" stroke-miterlimit="10" x1="115.669" y1="60.914" x2="115.669" y2="88.219"/>
			<ellipse fill="#E67245" cx="115.93" cy="63" rx="5.168" ry="5.434"/>
			<path fill="#F1C2A0" d="M129.138,36.934c0,10.657-6.849,19.298-15.294,19.298c-8.444,0-15.292-8.641-15.292-19.298
				c0-8.2-5.1-19.299,15.292-19.299C131.736,17.635,129.138,24.445,129.138,36.934z"/>
		</g>
	</g>
</g>
</svg>
