<?xml version="1.0" encoding="utf-8"?>
<!-- Generator: Adobe Illustrator 16.0.0, SVG Export Plug-In . SVG Version: 6.00 Build 0)  -->
<!DOCTYPE svg PUBLIC "-//W3C//DTD SVG 1.0//EN" "http://www.w3.org/TR/2001/REC-SVG-20010904/DTD/svg10.dtd">
<svg version="1.0" id="Capa_1" xmlns="http://www.w3.org/2000/svg" xmlns:xlink="http://www.w3.org/1999/xlink" x="0px" y="0px"
	 width="230.583px" height="133.402px" viewBox="0 0 230.583 133.402" enable-background="new 0 0 230.583 133.402"
	 xml:space="preserve">
<path fill="#D6EEED" d="M230.583,121.759c0,6.432-7.876,11.644-17.593,11.644H17.591C7.876,133.402,0,128.19,0,121.759V11.643
	C0,5.213,7.876,0,17.591,0h195.399c9.717,0,17.593,5.213,17.593,11.643V121.759z"/>
<g>
	<polygon fill="#44999B" points="123.017,14 81.956,14 81.956,94.343 148.869,94.343 148.869,34.783 123.017,34.783 	"/>
	<polygon fill="#52B9C7" points="123.017,14 123.017,34.783 148.869,34.783 135.942,24.392 	"/>
	<line fill="none" stroke="#FFFFFF" stroke-width="4" stroke-miterlimit="10" x1="96.15" y1="34.783" x2="117.947" y2="34.783"/>
	<line fill="none" stroke="#FFFFFF" stroke-width="4" stroke-miterlimit="10" x1="91.587" y1="48.344" x2="139.745" y2="48.344"/>
	<line fill="none" stroke="#FFFFFF" stroke-width="4" stroke-miterlimit="10" x1="91.587" y1="60.256" x2="139.745" y2="60.256"/>
	<line fill="none" stroke="#FFFFFF" stroke-width="4" stroke-miterlimit="10" x1="91.587" y1="72.653" x2="139.745" y2="72.653"/>
	<line fill="none" stroke="#FFFFFF" stroke-width="4" stroke-miterlimit="10" x1="91.587" y1="83.204" x2="139.745" y2="83.204"/>
</g>
</svg>
