<?xml version="1.0" encoding="utf-8"?>
<!-- Generator: Adobe Illustrator 16.0.0, SVG Export Plug-In . SVG Version: 6.00 Build 0)  -->
<!DOCTYPE svg PUBLIC "-//W3C//DTD SVG 1.0//EN" "http://www.w3.org/TR/2001/REC-SVG-20010904/DTD/svg10.dtd">
<svg version="1.0" id="Capa_1" xmlns="http://www.w3.org/2000/svg" xmlns:xlink="http://www.w3.org/1999/xlink" x="0px" y="0px"
	 width="1593.816px" height="158.312px" viewBox="0 0 1593.816 158.312" enable-background="new 0 0 1593.816 158.312"
	 xml:space="preserve">
<g>
	<defs>
		<polygon id="SVGID_1_" points="1594.547,141.442 0,140.776 0.79,4.6 1595.336,5.267 		"/>
	</defs>
	<clipPath id="SVGID_2_">
		<use xlink:href="#SVGID_1_"  overflow="visible"/>
	</clipPath>
	<g clip-path="url(#SVGID_2_)">
		<defs>
			<rect id="SVGID_3_" x="-70.755" y="-19.693" width="1736.848" height="465.806"/>
		</defs>
		<clipPath id="SVGID_4_">
			<use xlink:href="#SVGID_3_"  overflow="visible"/>
		</clipPath>
		<g clip-path="url(#SVGID_4_)">
			<g>
				
					<radialGradient id="SVGID_5_" cx="1811.2134" cy="-424.1533" r="197.7292" gradientTransform="matrix(-0.1248 -0.5813 2.1674 -0.0335 2963.5906 1247.115)" gradientUnits="userSpaceOnUse">
					<stop  offset="0" style="stop-color:#FFFFFF;stop-opacity:0.2"/>
					<stop  offset="1" style="stop-color:#29ABE3;stop-opacity:0"/>
				</radialGradient>
				<polygon fill="url(#SVGID_5_)" points="1492.068,198.22 2111.486,65.971 1802.537,346.776 				"/>
				
					<radialGradient id="SVGID_6_" cx="1716.0151" cy="-501.2983" r="112.1754" gradientTransform="matrix(-0.1248 -0.5813 2.1674 -0.0335 2963.5906 1247.115)" gradientUnits="userSpaceOnUse">
					<stop  offset="0" style="stop-color:#FFFFFF;stop-opacity:0.2"/>
					<stop  offset="1" style="stop-color:#29ABE3;stop-opacity:0"/>
				</radialGradient>
				<polygon fill="url(#SVGID_6_)" points="1802.537,346.776 1800.849,181.808 1492.068,198.22 				"/>
				
					<radialGradient id="SVGID_7_" cx="1811.2134" cy="-360.1025" r="177.7848" gradientTransform="matrix(-0.1248 -0.5813 2.1674 -0.0335 2963.5906 1247.115)" gradientUnits="userSpaceOnUse">
					<stop  offset="0" style="stop-color:#FFFFFF;stop-opacity:0.2"/>
					<stop  offset="1" style="stop-color:#29ABE3;stop-opacity:0"/>
				</radialGradient>
				<polygon fill="url(#SVGID_7_)" points="1800.849,181.808 2111.486,65.971 1802.537,346.776 				"/>
				
					<radialGradient id="SVGID_8_" cx="1760.1704" cy="-586.5117" r="170.3042" gradientTransform="matrix(-0.1248 -0.5813 2.1674 -0.0335 2963.5906 1247.115)" gradientUnits="userSpaceOnUse">
					<stop  offset="0" style="stop-color:#FFFFFF;stop-opacity:0.2"/>
					<stop  offset="1" style="stop-color:#29ABE3;stop-opacity:0"/>
				</radialGradient>
				<polygon fill="url(#SVGID_8_)" points="1190.304,361.646 1802.537,346.776 1354.715,131.784 1354.715,131.784 				"/>
				
					<radialGradient id="SVGID_9_" cx="1764.8101" cy="-537.3574" r="149.5409" gradientTransform="matrix(-0.1248 -0.5813 2.1674 -0.0335 2963.5906 1247.115)" gradientUnits="userSpaceOnUse">
					<stop  offset="0" style="stop-color:#FFFFFF;stop-opacity:0.2"/>
					<stop  offset="1" style="stop-color:#29ABE3;stop-opacity:0"/>
				</radialGradient>
				<polygon fill="url(#SVGID_9_)" points="1802.537,346.776 1393.186,307.095 1354.715,131.784 				"/>
				
					<radialGradient id="SVGID_10_" cx="1824.2114" cy="-832.6558" r="285.257" gradientTransform="matrix(-0.1248 -0.5813 2.1674 -0.0335 2963.5906 1247.115)" gradientUnits="userSpaceOnUse">
					<stop  offset="0" style="stop-color:#FFFFFF;stop-opacity:0.2"/>
					<stop  offset="1" style="stop-color:#29ABE3;stop-opacity:0"/>
				</radialGradient>
				<polygon fill="url(#SVGID_10_)" points="1156.304,414.492 1354.715,131.784 447.805,18.775 				"/>
				
					<radialGradient id="SVGID_11_" cx="1823.4644" cy="-891.4648" r="265.864" gradientTransform="matrix(-0.1248 -0.5813 2.1674 -0.0335 2963.5906 1247.115)" gradientUnits="userSpaceOnUse">
					<stop  offset="0" style="stop-color:#FFFFFF;stop-opacity:0.2"/>
					<stop  offset="1" style="stop-color:#29ABE3;stop-opacity:0"/>
				</radialGradient>
				<polygon fill="url(#SVGID_11_)" points="1156.304,414.492 998.728,170.807 451.341,19.593 				"/>
				
					<radialGradient id="SVGID_12_" cx="1715.313" cy="-713.4888" r="179.5816" gradientTransform="matrix(-0.1248 -0.5813 2.1674 -0.0335 2963.5906 1247.115)" gradientUnits="userSpaceOnUse">
					<stop  offset="0" style="stop-color:#FFFFFF;stop-opacity:0.2"/>
					<stop  offset="1" style="stop-color:#29ABE3;stop-opacity:0"/>
				</radialGradient>
				<polygon fill="url(#SVGID_12_)" points="998.728,170.807 1354.715,131.784 1156.304,414.492 				"/>
				
					<radialGradient id="SVGID_13_" cx="2083.5405" cy="-1079.5547" r="489.3829" gradientTransform="matrix(-0.1248 -0.5813 2.1674 -0.0335 2963.5906 1247.115)" gradientUnits="userSpaceOnUse">
					<stop  offset="0" style="stop-color:#FFFFFF;stop-opacity:0.2"/>
					<stop  offset="1" style="stop-color:#29ABE3;stop-opacity:0"/>
				</radialGradient>
				<polygon fill="url(#SVGID_13_)" points="1156.304,414.492 -277.109,436.635 -428.914,-270.162 -73.791,-275.647 				"/>
				
					<radialGradient id="SVGID_14_" cx="2083.5415" cy="-997.6299" r="464.4988" gradientTransform="matrix(-0.1248 -0.5813 2.1674 -0.0335 2963.5906 1247.115)" gradientUnits="userSpaceOnUse">
					<stop  offset="0" style="stop-color:#FFFFFF;stop-opacity:0.2"/>
					<stop  offset="1" style="stop-color:#29ABE3;stop-opacity:0"/>
				</radialGradient>
				<polygon fill="url(#SVGID_14_)" points="1156.304,414.492 126.485,190.382 -73.791,-275.647 				"/>
				
					<radialGradient id="SVGID_15_" cx="2083.5405" cy="-1305.2734" r="436.2657" gradientTransform="matrix(-0.1248 -0.5813 2.1674 -0.0335 2963.5906 1247.115)" gradientUnits="userSpaceOnUse">
					<stop  offset="0" style="stop-color:#FFFFFF;stop-opacity:0.2"/>
					<stop  offset="1" style="stop-color:#29ABE3;stop-opacity:0"/>
				</radialGradient>
				<polygon fill="url(#SVGID_15_)" points="126.485,190.382 -277.109,436.635 -73.791,-275.647 				"/>
			</g>
			<g>
				
					<radialGradient id="SVGID_16_" cx="3581.9858" cy="362.543" r="197.7109" gradientTransform="matrix(-2.1665 0.0381 -0.142 -0.581 8869.584 19.3768)" gradientUnits="userSpaceOnUse">
					<stop  offset="0" style="stop-color:#FFFFFF;stop-opacity:0.2"/>
					<stop  offset="1" style="stop-color:#29ABE3;stop-opacity:0"/>
				</radialGradient>
				<polygon fill="url(#SVGID_16_)" points="1021.909,32.671 523.914,-132.402 1573.354,-51.764 				"/>
				
					<radialGradient id="SVGID_17_" cx="3486.7964" cy="285.4014" r="112.1644" gradientTransform="matrix(-2.1665 0.0381 -0.142 -0.581 8869.584 19.3768)" gradientUnits="userSpaceOnUse">
					<stop  offset="0" style="stop-color:#FFFFFF;stop-opacity:0.2"/>
					<stop  offset="1" style="stop-color:#29ABE3;stop-opacity:0"/>
				</radialGradient>
				<polygon fill="url(#SVGID_17_)" points="1573.354,-51.764 958.277,-50.008 1021.909,32.671 				"/>
				
					<radialGradient id="SVGID_18_" cx="3581.9858" cy="426.5859" r="177.7683" gradientTransform="matrix(-2.1665 0.0381 -0.142 -0.581 8869.584 19.3768)" gradientUnits="userSpaceOnUse">
					<stop  offset="0" style="stop-color:#FFFFFF;stop-opacity:0.2"/>
					<stop  offset="1" style="stop-color:#29ABE3;stop-opacity:0"/>
				</radialGradient>
				<polygon fill="url(#SVGID_18_)" points="958.277,-50.008 523.914,-132.402 1573.354,-51.764 				"/>
				
					<radialGradient id="SVGID_19_" cx="3530.9507" cy="200.1909" r="170.2889" gradientTransform="matrix(-2.1665 0.0381 -0.142 -0.581 8869.584 19.3768)" gradientUnits="userSpaceOnUse">
					<stop  offset="0" style="stop-color:#FFFFFF;stop-opacity:0.2"/>
					<stop  offset="1" style="stop-color:#29ABE3;stop-opacity:0"/>
				</radialGradient>
				<polygon fill="url(#SVGID_19_)" points="1633.636,112.31 1573.354,-51.764 775.285,70.031 775.285,70.031 				"/>
				
					<radialGradient id="SVGID_20_" cx="3535.5894" cy="249.3442" r="149.5266" gradientTransform="matrix(-2.1665 0.0381 -0.142 -0.581 8869.584 19.3768)" gradientUnits="userSpaceOnUse">
					<stop  offset="0" style="stop-color:#FFFFFF;stop-opacity:0.2"/>
					<stop  offset="1" style="stop-color:#29ABE3;stop-opacity:0"/>
				</radialGradient>
				<polygon fill="url(#SVGID_20_)" points="1573.354,-51.764 1428.637,58.331 775.285,70.031 				"/>
				
					<radialGradient id="SVGID_21_" cx="3594.9937" cy="-45.9248" r="285.2317" gradientTransform="matrix(-2.1665 0.0381 -0.142 -0.581 8869.584 19.3768)" gradientUnits="userSpaceOnUse">
					<stop  offset="0" style="stop-color:#FFFFFF;stop-opacity:0.2"/>
					<stop  offset="1" style="stop-color:#29ABE3;stop-opacity:0"/>
				</radialGradient>
				<polygon fill="url(#SVGID_21_)" points="1830.935,121.01 775.285,70.031 361.075,314.141 				"/>
				
					<radialGradient id="SVGID_22_" cx="3594.2456" cy="-104.7324" r="265.8399" gradientTransform="matrix(-2.1665 0.0381 -0.142 -0.581 8869.584 19.3768)" gradientUnits="userSpaceOnUse">
					<stop  offset="0" style="stop-color:#FFFFFF;stop-opacity:0.2"/>
					<stop  offset="1" style="stop-color:#29ABE3;stop-opacity:0"/>
				</radialGradient>
				<polygon fill="url(#SVGID_22_)" points="1830.935,121.01 923.585,165.192 364.094,313.185 				"/>
				
					<radialGradient id="SVGID_23_" cx="3486.0991" cy="73.23" r="179.5637" gradientTransform="matrix(-2.1665 0.0381 -0.142 -0.581 8869.584 19.3768)" gradientUnits="userSpaceOnUse">
					<stop  offset="0" style="stop-color:#FFFFFF;stop-opacity:0.2"/>
					<stop  offset="1" style="stop-color:#29ABE3;stop-opacity:0"/>
				</radialGradient>
				<polygon fill="url(#SVGID_23_)" points="923.585,165.192 775.285,70.031 1830.935,121.01 				"/>
				
					<radialGradient id="SVGID_24_" cx="3854.3042" cy="-292.8101" r="489.341" gradientTransform="matrix(-2.1665 0.0381 -0.142 -0.581 8869.584 19.3768)" gradientUnits="userSpaceOnUse">
					<stop  offset="0" style="stop-color:#FFFFFF;stop-opacity:0.2"/>
					<stop  offset="1" style="stop-color:#29ABE3;stop-opacity:0"/>
				</radialGradient>
				<polygon fill="url(#SVGID_24_)" points="1830.935,121.01 1924.817,505.251 -709.333,551.542 -732.591,456.346 				"/>
				
					<radialGradient id="SVGID_25_" cx="3854.3032" cy="-210.8833" r="464.4575" gradientTransform="matrix(-2.1665 0.0381 -0.142 -0.581 8869.584 19.3768)" gradientUnits="userSpaceOnUse">
					<stop  offset="0" style="stop-color:#FFFFFF;stop-opacity:0.2"/>
					<stop  offset="1" style="stop-color:#29ABE3;stop-opacity:0"/>
				</radialGradient>
				<polygon fill="url(#SVGID_25_)" points="1830.935,121.01 1003.46,398.957 -732.591,456.346 				"/>
				
					<radialGradient id="SVGID_26_" cx="3854.3062" cy="-518.5073" r="436.2277" gradientTransform="matrix(-2.1665 0.0381 -0.142 -0.581 8869.584 19.3768)" gradientUnits="userSpaceOnUse">
					<stop  offset="0" style="stop-color:#FFFFFF;stop-opacity:0.2"/>
					<stop  offset="1" style="stop-color:#29ABE3;stop-opacity:0"/>
				</radialGradient>
				<polygon fill="url(#SVGID_26_)" points="1003.46,398.957 1924.817,505.251 -732.591,456.346 				"/>
			</g>
		</g>
	</g>
</g>
<g>
	<g>
		<line fill="none" stroke="#FFFFFF" stroke-width="3" stroke-miterlimit="10" x1="17.587" y1="15.601" x2="23.587" y2="15.601"/>
		
			<line fill="none" stroke="#FFFFFF" stroke-width="3" stroke-miterlimit="10" stroke-dasharray="11.9943,11.9943" x1="35.582" y1="15.601" x2="1564.855" y2="15.601"/>
		
			<line fill="none" stroke="#FFFFFF" stroke-width="3" stroke-miterlimit="10" x1="1570.852" y1="15.601" x2="1576.852" y2="15.601"/>
	</g>
</g>
<g>
	<g>
		<line fill="none" stroke="#FFFFFF" stroke-width="3" stroke-miterlimit="10" x1="14.845" y1="123.454" x2="20.845" y2="123.454"/>
		
			<line fill="none" stroke="#FFFFFF" stroke-width="3" stroke-miterlimit="10" stroke-dasharray="11.9943,11.9943" x1="32.839" y1="123.454" x2="1562.113" y2="123.454"/>
		
			<line fill="none" stroke="#FFFFFF" stroke-width="3" stroke-miterlimit="10" x1="1568.11" y1="123.454" x2="1574.11" y2="123.454"/>
	</g>
</g>
<g>
	<defs>
		<rect id="SVGID_27_" x="-7.229" width="1603.123" height="158.312"/>
	</defs>
	<clipPath id="SVGID_28_">
		<use xlink:href="#SVGID_27_"  overflow="visible"/>
	</clipPath>
	<g clip-path="url(#SVGID_28_)">
		<defs>
			<rect id="SVGID_29_" x="-17.845" y="-248.995" width="1611.661" height="407.307"/>
		</defs>
		<clipPath id="SVGID_30_">
			<use xlink:href="#SVGID_29_"  overflow="visible"/>
		</clipPath>
		<g clip-path="url(#SVGID_30_)">
			<defs>
				<polygon id="SVGID_31_" points="1593.79,172.262 0.786,170.141 1.575,-262.848 1594.581,-260.728 				"/>
			</defs>
			<clipPath id="SVGID_32_">
				<use xlink:href="#SVGID_31_"  overflow="visible"/>
			</clipPath>
			<polygon clip-path="url(#SVGID_32_)" fill="#6BC8F2" points="1593.79,172.262 0.786,170.141 1.575,-262.848 1594.581,-260.728 
							"/>
			<g clip-path="url(#SVGID_32_)">
				<defs>
					<polygon id="SVGID_33_" points="1593.79,172.262 0.786,170.141 1.575,-262.848 1594.581,-260.728 					"/>
				</defs>
				<clipPath id="SVGID_34_">
					<use xlink:href="#SVGID_33_"  overflow="visible"/>
				</clipPath>
				<g clip-path="url(#SVGID_34_)">
					<g>
						<polygon fill="#597BBC" points="209.766,61.142 516.012,174.788 -8.512,168.462 						"/>
						<polygon fill="#3353A0" points="-8.512,168.462 276.75,129.403 209.766,61.142 						"/>
						<g opacity="0.5">
							<defs>
								<polygon id="SVGID_35_" opacity="0.5" points="8.04,182.946 -14.281,172.212 253.613,39.514 275.94,50.246 								"/>
							</defs>
							<clipPath id="SVGID_36_">
								<use xlink:href="#SVGID_35_"  overflow="visible"/>
							</clipPath>
							
								<radialGradient id="SVGID_37_" cx="-2848.3472" cy="157160.0938" r="130.8799" gradientTransform="matrix(0.9912 -0.4908 0.1455 0.0702 -19925.8457 -12320.9941)" gradientUnits="userSpaceOnUse">
								<stop  offset="0" style="stop-color:#676767"/>
								<stop  offset="0.2102" style="stop-color:#7C7A7A;stop-opacity:0.7898"/>
								<stop  offset="0.6438" style="stop-color:#B6B4B4;stop-opacity:0.3562"/>
								<stop  offset="1" style="stop-color:#F2F2F2;stop-opacity:0"/>
							</radialGradient>
							<path clip-path="url(#SVGID_36_)" fill="url(#SVGID_37_)" d="M253.111,40.117c-10.529-5.062-77.121,19.581-148.724,55.049
								C32.782,130.629-16.717,163.49-6.176,168.559c10.533,5.064,77.128-19.582,148.726-55.044
								C214.154,78.047,263.653,45.188,253.111,40.117z"/>
						</g>
						<polygon fill="#597BBC" points="-110.736,28.977 -8.512,168.462 307.577,13.491 307.577,13.491 						"/>
						<polygon fill="#2B307A" points="-8.512,168.462 9.011,63.571 307.577,13.491 						"/>
						<g opacity="0.7">
							<defs>
								<polygon id="SVGID_38_" opacity="0.7" points="-148.136,48.399 -150.417,28.724 330.597,10.418 332.888,30.098 								"/>
							</defs>
							<clipPath id="SVGID_39_">
								<use xlink:href="#SVGID_38_"  overflow="visible"/>
							</clipPath>
							
								<radialGradient id="SVGID_40_" cx="-3933.5532" cy="162787.7813" r="166.9684" gradientTransform="matrix(1.3944 -0.0531 0.0113 0.1007 3745.322 -16584.3398)" gradientUnits="userSpaceOnUse">
								<stop  offset="0" style="stop-color:#676767"/>
								<stop  offset="0.2102" style="stop-color:#7C7A7A;stop-opacity:0.7898"/>
								<stop  offset="0.6438" style="stop-color:#B6B4B4;stop-opacity:0.3562"/>
								<stop  offset="1" style="stop-color:#F2F2F2;stop-opacity:0"/>
							</radialGradient>
							<path clip-path="url(#SVGID_39_)" fill="url(#SVGID_40_)" d="M329.078,10.804C327.996,1.518,222.907-2.046,94.336,2.847
								C-34.219,7.735-137.568,19.231-136.486,28.522c1.073,9.288,106.169,12.848,234.728,7.959
								C226.813,31.59,330.151,20.099,329.078,10.804z"/>
						</g>
						<polygon fill="none" points="-206.431,33.43 307.577,13.491 405.385,-265.54 						"/>
						<polygon fill="#32BCE0" points="-206.431,33.43 195.566,-60.489 388.854,-223.762 						"/>
						<polygon fill="#0980C1" points="195.566,-60.489 307.577,13.491 -206.431,33.43 						"/>
						<g opacity="0.4">
							<defs>
								<polygon id="SVGID_41_" opacity="0.4" points="-163.361,53.819 -206.84,29.592 396.11,-229.719 439.587,-205.488 								
									"/>
							</defs>
							<clipPath id="SVGID_42_">
								<use xlink:href="#SVGID_41_"  overflow="visible"/>
							</clipPath>
							
								<radialGradient id="SVGID_43_" cx="-3022.019" cy="154635.0625" r="275.6971" gradientTransform="matrix(1.0591 -0.4554 0.1345 0.0752 -17490.9102 -13102.4893)" gradientUnits="userSpaceOnUse">
								<stop  offset="0" style="stop-color:#676767"/>
								<stop  offset="0.2102" style="stop-color:#7C7A7A;stop-opacity:0.7898"/>
								<stop  offset="0.6438" style="stop-color:#B6B4B4;stop-opacity:0.3562"/>
								<stop  offset="1" style="stop-color:#F2F2F2;stop-opacity:0"/>
							</radialGradient>
							<path clip-path="url(#SVGID_42_)" fill="url(#SVGID_43_)" d="M394.865-228.479c-20.515-11.434-167.783,35.48-328.937,104.782
								C-95.227-54.395-209.226,11.064-188.7,22.506C-168.171,33.94-20.897-12.973,140.249-82.275
								C301.403-151.581,415.402-217.034,394.865-228.479z"/>
						</g>
						<polygon fill="#0980C1" points="-206.431,33.43 -423.842,-296.113 780.289,-497.239 834.149,-415.598 						"/>
						<polygon fill="#13A6D5" points="-206.431,33.43 52.718,-259.587 834.149,-415.598 						"/>
						<polygon fill="#FFD009" points="52.718,-259.587 -423.842,-296.113 834.149,-415.598 						"/>
						<polygon fill="#2B307A" points="276.75,129.403 516.012,174.788 -8.512,168.462 						"/>
					</g>
					<g>
						<polygon fill="#597BBC" points="1433.638,121.687 1187.343,426.284 1757.06,218.519 						"/>
						<polygon fill="#3353A0" points="1757.06,218.519 1413.847,260.664 1433.638,121.687 						"/>
						<g opacity="0.5">
							<defs>
								<polygon id="SVGID_44_" opacity="0.5" points="1750.297,248.893 1766.322,222.6 1368.615,102.117 1352.576,128.407 								
									"/>
							</defs>
							<clipPath id="SVGID_45_">
								<use xlink:href="#SVGID_44_"  overflow="visible"/>
							</clipPath>
							
								<radialGradient id="SVGID_46_" cx="1551.5249" cy="174511.9531" r="235.167" gradientTransform="matrix(-0.819 -0.2479 -0.0581 0.0955 12976.8535 -16125.2764)" gradientUnits="userSpaceOnUse">
								<stop  offset="0" style="stop-color:#676767"/>
								<stop  offset="0.2102" style="stop-color:#7C7A7A;stop-opacity:0.7898"/>
								<stop  offset="0.6438" style="stop-color:#B6B4B4;stop-opacity:0.3562"/>
								<stop  offset="1" style="stop-color:#F2F2F2;stop-opacity:0"/>
							</radialGradient>
							<path clip-path="url(#SVGID_45_)" fill="url(#SVGID_46_)" d="M1369.642,102.935c7.561-12.392,99.867,3.651,206.173,35.852
								c106.299,32.192,186.325,68.357,178.759,80.775c-7.561,12.399-99.882-3.645-206.165-35.836
								C1442.105,151.52,1362.074,115.355,1369.642,102.935z"/>
						</g>
						<polygon fill="#597BBC" points="1759.535,-52.436 1757.06,218.519 1289.064,79.032 1289.064,79.032 						"/>
						<polygon fill="#2B307A" points="1757.06,218.519 1655.502,50.254 1289.064,79.032 						"/>
						<g opacity="0.7">
							<defs>
								<polygon id="SVGID_47_" opacity="0.7" points="1815.763,-34.122 1802.812,-67.777 1261.431,82.562 1274.373,116.231 
																	"/>
							</defs>
							<clipPath id="SVGID_48_">
								<use xlink:href="#SVGID_47_"  overflow="visible"/>
							</clipPath>
							
								<radialGradient id="SVGID_49_" cx="1042.8267" cy="155196.625" r="299.8882" gradientTransform="matrix(-0.8734 0.2425 0.0371 0.0959 -3319.8792 -15126.4512)" gradientUnits="userSpaceOnUse">
								<stop  offset="0" style="stop-color:#676767"/>
								<stop  offset="0.2102" style="stop-color:#7C7A7A;stop-opacity:0.7898"/>
								<stop  offset="0.6438" style="stop-color:#B6B4B4;stop-opacity:0.3562"/>
								<stop  offset="1" style="stop-color:#F2F2F2;stop-opacity:0"/>
							</radialGradient>
							<path clip-path="url(#SVGID_48_)" fill="url(#SVGID_49_)" d="M1263.396,82.636c-6.107-15.884,106.236-61.341,250.938-101.525
								c144.688-40.187,266.947-59.882,273.058-43.987c6.113,15.889-106.234,61.332-250.931,101.525
								C1391.762,78.835,1269.516,98.535,1263.396,82.636z"/>
						</g>
						<polygon fill="#1193D2" points="1867.876,-80.991 1289.064,79.032 962.811,-349.337 						"/>
						<polygon fill="#32BCE0" points="1867.876,-80.991 1353.695,-86.406 1013.73,-285.907 						"/>
						<polygon fill="#0980C1" points="1353.695,-86.406 1289.064,79.032 1867.876,-80.991 						"/>
						<g opacity="0.4">
							<defs>
								<polygon id="SVGID_50_" opacity="0.4" points="1836.701,-30.809 1865.313,-87.544 1001.096,-293.109 972.49,-236.372 
																	"/>
							</defs>
							<clipPath id="SVGID_51_">
								<use xlink:href="#SVGID_50_"  overflow="visible"/>
							</clipPath>
							
								<radialGradient id="SVGID_52_" cx="1686.4937" cy="168674.9688" r="495.6116" gradientTransform="matrix(-0.8448 -0.2009 -0.0492 0.0978 11151.1953 -16341.5254)" gradientUnits="userSpaceOnUse">
								<stop  offset="0" style="stop-color:#676767"/>
								<stop  offset="0.2102" style="stop-color:#7C7A7A;stop-opacity:0.7898"/>
								<stop  offset="0.6438" style="stop-color:#B6B4B4;stop-opacity:0.3562"/>
								<stop  offset="1" style="stop-color:#F2F2F2;stop-opacity:0"/>
							</radialGradient>
							<path clip-path="url(#SVGID_51_)" fill="url(#SVGID_52_)" d="M1003.438-291.509c13.495-26.775,211.679-3.941,442.661,50.995
								c230.98,54.93,407.282,121.184,393.771,147.977c-13.514,26.784-211.704,3.949-442.674-50.987
								C1166.213-198.464,989.922-264.713,1003.438-291.509z"/>
						</g>
						<polygon fill="#F4C407" points="1867.876,-80.991 1847.322,-712.085 370.123,-594.617 375.219,-438.272 						"/>
						<polygon fill="#13A6D5" points="1867.876,-80.991 1353.873,-472.016 375.219,-438.272 						"/>
						<polygon fill="#FFD009" points="1353.873,-472.016 1847.322,-712.085 375.219,-438.272 						"/>
						<polygon fill="#009946" points="1413.847,260.664 1187.343,426.284 1757.06,218.519 						"/>
					</g>
				</g>
			</g>
			<g clip-path="url(#SVGID_32_)">
				<defs>
					<rect id="SVGID_53_" x="-69.9" y="-340.091" width="1735.167" height="1481.089"/>
				</defs>
				<clipPath id="SVGID_54_">
					<use xlink:href="#SVGID_53_"  overflow="visible"/>
				</clipPath>
				<g clip-path="url(#SVGID_54_)">
					<g>
						
							<radialGradient id="SVGID_55_" cx="1937.8687" cy="-241.0737" r="197.729" gradientTransform="matrix(-0.1247 -1.8482 2.1653 -0.1065 2580.8901 3941.4651)" gradientUnits="userSpaceOnUse">
							<stop  offset="0" style="stop-color:#FFFFFF;stop-opacity:0.2"/>
							<stop  offset="1" style="stop-color:#29ABE3;stop-opacity:0"/>
						</radialGradient>
						<polygon fill="url(#SVGID_55_)" points="1491.412,352.793 2110.228,-67.711 1801.578,825.147 						"/>
						
							<radialGradient id="SVGID_56_" cx="1842.6704" cy="-318.2192" r="112.1758" gradientTransform="matrix(-0.1247 -1.8482 2.1653 -0.1065 2580.8901 3941.4651)" gradientUnits="userSpaceOnUse">
							<stop  offset="0" style="stop-color:#FFFFFF;stop-opacity:0.2"/>
							<stop  offset="1" style="stop-color:#29ABE3;stop-opacity:0"/>
						</radialGradient>
						<polygon fill="url(#SVGID_56_)" points="1801.578,825.147 1799.891,300.606 1491.412,352.793 						"/>
						
							<radialGradient id="SVGID_57_" cx="1937.8687" cy="-177.0234" r="177.7848" gradientTransform="matrix(-0.1247 -1.8482 2.1653 -0.1065 2580.8901 3941.4651)" gradientUnits="userSpaceOnUse">
							<stop  offset="0" style="stop-color:#FFFFFF;stop-opacity:0.2"/>
							<stop  offset="1" style="stop-color:#29ABE3;stop-opacity:0"/>
						</radialGradient>
						<polygon fill="url(#SVGID_57_)" points="1799.891,300.606 2110.228,-67.711 1801.578,825.147 						"/>
						
							<radialGradient id="SVGID_58_" cx="1886.8247" cy="-403.4336" r="170.3047" gradientTransform="matrix(-0.1247 -1.8482 2.1653 -0.1065 2580.8901 3941.4651)" gradientUnits="userSpaceOnUse">
							<stop  offset="0" style="stop-color:#FFFFFF;stop-opacity:0.2"/>
							<stop  offset="1" style="stop-color:#29ABE3;stop-opacity:0"/>
						</radialGradient>
						<polygon fill="url(#SVGID_58_)" points="1189.936,872.428 1801.578,825.147 1354.189,141.553 1354.189,141.553 						"/>
						
							<radialGradient id="SVGID_59_" cx="1891.4653" cy="-354.2793" r="149.5409" gradientTransform="matrix(-0.1247 -1.8482 2.1653 -0.1065 2580.8901 3941.4651)" gradientUnits="userSpaceOnUse">
							<stop  offset="0" style="stop-color:#FFFFFF;stop-opacity:0.2"/>
							<stop  offset="1" style="stop-color:#29ABE3;stop-opacity:0"/>
						</radialGradient>
						<polygon fill="url(#SVGID_59_)" points="1801.578,825.147 1392.625,698.977 1354.189,141.553 						"/>
						
							<radialGradient id="SVGID_60_" cx="1950.8677" cy="-649.5776" r="285.2576" gradientTransform="matrix(-0.1247 -1.8482 2.1653 -0.1065 2580.8901 3941.4651)" gradientUnits="userSpaceOnUse">
							<stop  offset="0" style="stop-color:#FFFFFF;stop-opacity:0.2"/>
							<stop  offset="1" style="stop-color:#29ABE3;stop-opacity:0"/>
						</radialGradient>
						<polygon fill="url(#SVGID_60_)" points="1155.97,1040.456 1354.189,141.553 448.156,-217.775 						"/>
						
							<radialGradient id="SVGID_61_" cx="1950.1196" cy="-708.3862" r="265.8646" gradientTransform="matrix(-0.1247 -1.8482 2.1653 -0.1065 2580.8901 3941.4651)" gradientUnits="userSpaceOnUse">
							<stop  offset="0" style="stop-color:#FFFFFF;stop-opacity:0.2"/>
							<stop  offset="1" style="stop-color:#29ABE3;stop-opacity:0"/>
						</radialGradient>
						<polygon fill="url(#SVGID_61_)" points="1155.97,1040.456 998.547,265.629 451.69,-215.175 						"/>
						
							<radialGradient id="SVGID_62_" cx="1841.9683" cy="-530.4102" r="179.5815" gradientTransform="matrix(-0.1247 -1.8482 2.1653 -0.1065 2580.8901 3941.4651)" gradientUnits="userSpaceOnUse">
							<stop  offset="0" style="stop-color:#FFFFFF;stop-opacity:0.2"/>
							<stop  offset="1" style="stop-color:#29ABE3;stop-opacity:0"/>
						</radialGradient>
						<polygon fill="url(#SVGID_62_)" points="998.547,265.629 1354.189,141.553 1155.97,1040.456 						"/>
						
							<radialGradient id="SVGID_63_" cx="2210.1948" cy="-896.4766" r="489.3835" gradientTransform="matrix(-0.1247 -1.8482 2.1653 -0.1065 2580.8901 3941.4651)" gradientUnits="userSpaceOnUse">
							<stop  offset="0" style="stop-color:#FFFFFF;stop-opacity:0.2"/>
							<stop  offset="1" style="stop-color:#29ABE3;stop-opacity:0"/>
						</radialGradient>
						<polygon fill="url(#SVGID_63_)" points="1155.97,1040.456 -276.055,1110.867 -427.713,-1136.487 -72.934,-1153.93 						"/>
						
							<radialGradient id="SVGID_64_" cx="2210.1968" cy="-814.5513" r="464.4993" gradientTransform="matrix(-0.1247 -1.8482 2.1653 -0.1065 2580.8901 3941.4651)" gradientUnits="userSpaceOnUse">
							<stop  offset="0" style="stop-color:#FFFFFF;stop-opacity:0.2"/>
							<stop  offset="1" style="stop-color:#29ABE3;stop-opacity:0"/>
						</radialGradient>
						<polygon fill="url(#SVGID_64_)" points="1155.97,1040.456 127.148,327.873 -72.934,-1153.93 						"/>
						
							<radialGradient id="SVGID_65_" cx="2187.2827" cy="-1122.915" r="436.267" gradientTransform="matrix(-0.1247 -1.8482 2.1653 -0.1065 2580.8901 3941.4651)" gradientUnits="userSpaceOnUse">
							<stop  offset="0" style="stop-color:#FFFFFF;stop-opacity:0.2"/>
							<stop  offset="1" style="stop-color:#29ABE3;stop-opacity:0"/>
						</radialGradient>
						<polygon fill="url(#SVGID_65_)" points="128.447,370.295 -274.757,1153.29 -71.635,-1111.507 						"/>
					</g>
					<g>
						
							<radialGradient id="SVGID_66_" cx="3397.9253" cy="487.7354" r="197.7109" gradientTransform="matrix(-2.1644 0.1211 -0.1418 -1.8475 8481.1621 37.7152)" gradientUnits="userSpaceOnUse">
							<stop  offset="0" style="stop-color:#FFFFFF;stop-opacity:0.2"/>
							<stop  offset="1" style="stop-color:#29ABE3;stop-opacity:0"/>
						</radialGradient>
						<polygon fill="url(#SVGID_66_)" points="1021.705,-173.592 524.192,-698.461 1572.619,-442.06 						"/>
						
							<radialGradient id="SVGID_67_" cx="3302.7368" cy="410.5938" r="112.1654" gradientTransform="matrix(-2.1644 0.1211 -0.1418 -1.8475 8481.1621 37.7152)" gradientUnits="userSpaceOnUse">
							<stop  offset="0" style="stop-color:#FFFFFF;stop-opacity:0.2"/>
							<stop  offset="1" style="stop-color:#29ABE3;stop-opacity:0"/>
						</radialGradient>
						<polygon fill="url(#SVGID_67_)" points="1572.619,-442.06 958.132,-436.481 1021.705,-173.592 						"/>
						
							<radialGradient id="SVGID_68_" cx="3397.9253" cy="551.7773" r="177.7686" gradientTransform="matrix(-2.1644 0.1211 -0.1418 -1.8475 8481.1621 37.7152)" gradientUnits="userSpaceOnUse">
							<stop  offset="0" style="stop-color:#FFFFFF;stop-opacity:0.2"/>
							<stop  offset="1" style="stop-color:#29ABE3;stop-opacity:0"/>
						</radialGradient>
						<polygon fill="url(#SVGID_68_)" points="958.132,-436.481 524.192,-698.461 1572.619,-442.06 						"/>
						
							<radialGradient id="SVGID_69_" cx="3346.8901" cy="325.3823" r="170.289" gradientTransform="matrix(-2.1644 0.1211 -0.1418 -1.8475 8481.1621 37.7152)" gradientUnits="userSpaceOnUse">
							<stop  offset="0" style="stop-color:#FFFFFF;stop-opacity:0.2"/>
							<stop  offset="1" style="stop-color:#29ABE3;stop-opacity:0"/>
						</radialGradient>
						<polygon fill="url(#SVGID_69_)" points="1632.841,79.628 1572.619,-442.06 775.318,-54.799 775.318,-54.799 						"/>
						
							<radialGradient id="SVGID_70_" cx="3351.5288" cy="374.5356" r="149.5269" gradientTransform="matrix(-2.1644 0.1211 -0.1418 -1.8475 8481.1621 37.7152)" gradientUnits="userSpaceOnUse">
							<stop  offset="0" style="stop-color:#FFFFFF;stop-opacity:0.2"/>
							<stop  offset="1" style="stop-color:#29ABE3;stop-opacity:0"/>
						</radialGradient>
						<polygon fill="url(#SVGID_70_)" points="1572.619,-442.06 1428.04,-92.006 775.318,-54.799 						"/>
						
							<radialGradient id="SVGID_71_" cx="3410.9331" cy="79.2666" r="285.2327" gradientTransform="matrix(-2.1644 0.1211 -0.1418 -1.8475 8481.1621 37.7152)" gradientUnits="userSpaceOnUse">
							<stop  offset="0" style="stop-color:#FFFFFF;stop-opacity:0.2"/>
							<stop  offset="1" style="stop-color:#29ABE3;stop-opacity:0"/>
						</radialGradient>
						<polygon fill="url(#SVGID_71_)" points="1829.95,107.295 775.318,-54.799 361.51,721.379 						"/>
						
							<radialGradient id="SVGID_72_" cx="3410.1851" cy="20.459" r="265.8409" gradientTransform="matrix(-2.1644 0.1211 -0.1418 -1.8475 8481.1621 37.7152)" gradientUnits="userSpaceOnUse">
							<stop  offset="0" style="stop-color:#FFFFFF;stop-opacity:0.2"/>
							<stop  offset="1" style="stop-color:#29ABE3;stop-opacity:0"/>
						</radialGradient>
						<polygon fill="url(#SVGID_72_)" points="1829.95,107.295 923.478,247.779 364.527,718.343 						"/>
						
							<radialGradient id="SVGID_73_" cx="3302.0386" cy="198.4219" r="179.5645" gradientTransform="matrix(-2.1644 0.1211 -0.1418 -1.8475 8481.1621 37.7152)" gradientUnits="userSpaceOnUse">
							<stop  offset="0" style="stop-color:#FFFFFF;stop-opacity:0.2"/>
							<stop  offset="1" style="stop-color:#29ABE3;stop-opacity:0"/>
						</radialGradient>
						<polygon fill="url(#SVGID_73_)" points="923.478,247.779 775.318,-54.799 1829.95,107.295 						"/>
						
							<radialGradient id="SVGID_74_" cx="3670.2437" cy="-167.6172" r="489.341" gradientTransform="matrix(-2.1644 0.1211 -0.1418 -1.8475 8481.1621 37.7152)" gradientUnits="userSpaceOnUse">
							<stop  offset="0" style="stop-color:#FFFFFF;stop-opacity:0.2"/>
							<stop  offset="1" style="stop-color:#29ABE3;stop-opacity:0"/>
						</radialGradient>
						<polygon fill="url(#SVGID_74_)" points="1829.95,107.295 1923.74,1329.035 -707.861,1476.225 -731.096,1173.54 						"/>
						
							<radialGradient id="SVGID_75_" cx="3670.2417" cy="-85.6919" r="464.4585" gradientTransform="matrix(-2.1644 0.1211 -0.1418 -1.8475 8481.1621 37.7152)" gradientUnits="userSpaceOnUse">
							<stop  offset="0" style="stop-color:#FFFFFF;stop-opacity:0.2"/>
							<stop  offset="1" style="stop-color:#29ABE3;stop-opacity:0"/>
						</radialGradient>
						<polygon fill="url(#SVGID_75_)" points="1829.95,107.295 1003.277,991.064 -731.096,1173.54 						"/>
						
							<radialGradient id="SVGID_76_" cx="3670.2456" cy="-393.3159" r="436.2276" gradientTransform="matrix(-2.1644 0.1211 -0.1418 -1.8475 8481.1621 37.7152)" gradientUnits="userSpaceOnUse">
							<stop  offset="0" style="stop-color:#FFFFFF;stop-opacity:0.2"/>
							<stop  offset="1" style="stop-color:#29ABE3;stop-opacity:0"/>
						</radialGradient>
						<polygon fill="url(#SVGID_76_)" points="1003.277,991.064 1923.74,1329.035 -731.096,1173.54 						"/>
					</g>
				</g>
			</g>
		</g>
	</g>
</g>
</svg>
